<?xml version="1.0" standalone="yes"?>
<svg xmlns="http://www.w3.org/2000/svg" width="50" height="50">
<path style="fill:#010101; stroke:none;" d="M0 0L0 50L50 50L50 0L0 0z"/>
<path style="fill:#1b2fa4; stroke:none;" d="M4 3L4 5L13 7L4 3M18 16C0.0743504 24.3658 9.72511 51.0283 29 46.6057C43.3579 43.3113 45.4202 20.5141 31 16C44.1646 0.28569 7.61343 -3.15765 18 16M38 7L46 5L46 3L38 7z"/>
<path style="fill:#8aa0f0; stroke:none;" d="M19 5C16.6446 10.2408 18.7585 13.5327 23 17L23 13L24 13L24 16L25 16L26 12L27 12L27 16C31.6003 13.4742 33.0632 9.83007 31 5L28 12L27 12L26 8L24 8L23 13L22 13L19 5z"/>
<path style="fill:#e4e9fc; stroke:none;" d="M20 5L22 13L23 13L24 8L26 8L27 12L28 12L30 5L27 7L24 5L23 8L22 8L20 5z"/>
<path style="fill:#8aa0f0; stroke:none;" d="M21 5L22 8L23 8L24 5L21 5M26 5L28 7L28 5L26 5z"/>
<path style="fill:#1b2fa4; stroke:none;" d="M4 8L4 10L13 10L13 8L4 8M38 8L38 10L46 10L46 8L38 8M4 13L5 16L13 11L4 13M38 11C39.8754 14.2411 43.3472 16.5923 46 13L38 11z"/>
<path style="fill:#e4e9fc; stroke:none;" d="M26 12L25 16L24 16L24 13L23 13L25 20L26 12z"/>
<path style="fill:#010101; stroke:none;" d="M18 16L13 23C17.9944 26.8983 11.2953 36.0597 20.0432 40.0617C35.3302 47.0553 35.7737 28.0816 29 20L32 20L32 19L31 16L30 16L27 23L23 23L18 16z"/>
<path style="fill:#8aa0f0; stroke:none;" d="M26.3333 17.6667L26.6667 18.3333L26.3333 17.6667M23 18L24 19L23 18M25 19L26 20L25 19z"/>
<path style="fill:#ff5f57; stroke:none;" d="M16 23L20 20L16 23z"/>
<path style="fill:#010101; stroke:none;" d="M33 20L37 28L38 28L33 20M12 24C7.59701 37.9187 19.4165 50.2535 33 42L33 41C24.8195 43.7214 15.6794 44.7144 12.7276 34C11.8 30.6328 12.9991 27.2466 12 24M37 34L34 41L35 41L37 34z"/>
</svg>
